<svg version="1.1" id="Layer_1" xmlns="http://www.w3.org/2000/svg" xmlns:xlink="http://www.w3.org/1999/xlink" x="0px" y="0px"
	 width="100%" viewBox="0 0 1500 500" enable-background="new 0 0 1500 500" xml:space="preserve">
<path fill="#000000" opacity="1.000000" stroke="none" 
	d="
M961.000000,501.000000 
	C640.706604,501.000000 320.913208,501.000000 1.059907,501.000000 
	C1.059907,334.394104 1.059907,167.788177 1.059907,1.091125 
	C500.876831,1.091125 1000.753662,1.091125 1500.815186,1.091125 
	C1500.815186,167.666504 1500.815186,334.333221 1500.815186,501.000000 
	C1321.121338,501.000000 1141.310669,501.000000 961.000000,501.000000 
M1106.262329,264.648254 
	C1098.121460,267.174835 1092.557007,272.631409 1088.949829,280.162964 
	C1081.324219,296.084503 1081.289673,312.675018 1085.447510,329.364502 
	C1088.958496,343.456940 1099.151245,350.687469 1113.682129,350.358978 
	C1125.602051,350.089478 1134.091431,344.505127 1139.447754,333.737946 
	C1139.992065,345.819366 1140.190430,357.676392 1135.120728,368.882629 
	C1130.520874,379.050537 1120.252441,384.489960 1109.383057,382.543488 
	C1100.490112,380.950958 1095.857788,374.048889 1098.169067,365.334167 
	C1098.819824,362.880524 1100.476562,360.693726 1101.674438,358.380035 
	C1094.833740,353.756287 1086.235840,356.547791 1084.108398,364.112000 
	C1082.023682,371.524200 1084.503662,379.731049 1091.508423,383.035583 
	C1097.648193,385.932129 1104.642944,388.087982 1111.376709,388.460175 
	C1134.734253,389.751190 1149.397705,378.579437 1153.577271,357.014496 
	C1154.645630,351.502350 1154.845093,345.761505 1154.887329,340.121582 
	C1155.036865,320.140320 1154.611694,300.148468 1155.141602,280.180145 
	C1155.308350,273.892181 1152.823242,270.552917 1147.820679,268.167511 
	C1134.694580,261.908417 1121.062134,260.765381 1106.262329,264.648254 
M931.500183,172.374359 
	C896.776550,172.374359 862.052979,172.374359 827.447266,172.374359 
	C827.447266,177.706787 827.447266,182.133911 827.447266,186.639191 
	C964.796997,186.639191 1101.829468,186.639191 1238.766113,186.639191 
	C1238.766113,181.753677 1238.766113,177.203827 1238.766113,172.374420 
	C1136.417480,172.374420 1034.458862,172.374420 931.500183,172.374359 
M315.500183,172.374359 
	C290.721222,172.374359 265.942261,172.374359 241.193222,172.374359 
	C241.193222,177.546432 241.193222,182.117569 241.193222,186.560730 
	C378.567017,186.560730 515.590515,186.560730 652.593994,186.560730 
	C652.593994,181.728577 652.593994,177.305023 652.593994,172.374420 
	C540.379456,172.374420 428.439819,172.374420 315.500183,172.374359 
M428.500092,143.254318 
	C366.055725,143.254318 303.611328,143.254318 241.173035,143.254318 
	C241.173035,148.439072 241.173035,153.013382 241.173035,157.506195 
	C378.547760,157.506195 515.593994,157.506195 652.613098,157.506195 
	C652.613098,152.668900 652.613098,148.231293 652.613098,143.254349 
	C578.073059,143.254349 503.786591,143.254349 428.500092,143.254318 
M995.500000,157.901245 
	C1076.601807,157.901245 1157.703613,157.901245 1238.813110,157.901245 
	C1238.813110,152.750214 1238.813110,148.185577 1238.813110,143.668579 
	C1101.429321,143.668579 964.387817,143.668579 827.391724,143.668579 
	C827.391724,148.529526 827.391724,152.972946 827.391724,157.901245 
	C883.266602,157.901245 938.883301,157.901245 995.500000,157.901245 
M688.689819,171.608429 
	C696.780273,171.220581 700.952209,173.325684 701.657227,179.255798 
	C702.185974,183.703690 704.495605,185.115692 708.266663,185.934204 
	C730.260925,190.708191 752.194397,190.847595 774.051208,185.189880 
	C783.304016,182.794785 792.156067,179.441086 799.410156,172.922379 
	C809.879639,163.514267 809.674744,152.057373 798.780945,143.117630 
	C795.628479,140.530609 792.046936,138.466415 788.473755,136.034302 
	C794.266235,126.944351 798.329285,117.397362 799.148499,106.700836 
	C799.705811,99.423943 798.295593,98.041046 791.037170,99.197899 
	C786.523193,99.917343 782.055786,100.928513 777.943298,101.735046 
	C776.645569,96.224480 775.666321,91.172371 774.236816,86.251045 
	C772.846130,81.463226 770.895752,80.663239 766.515076,83.132179 
	C761.942261,85.709373 757.612793,88.718361 753.351135,91.427864 
	C750.315491,87.153732 747.311768,82.782936 744.155579,78.525177 
	C741.611755,75.093452 738.743164,74.748779 736.048462,78.352692 
	C732.777893,82.726662 729.654175,87.210411 726.622742,91.429825 
	C722.416138,88.742310 718.190063,85.782539 713.718567,83.257431 
	C709.077820,80.636749 707.175781,81.384033 705.678223,86.468491 
	C704.204285,91.472824 703.244934,96.628754 702.012817,101.919968 
	C698.947388,101.207794 696.081848,100.396797 693.163452,99.889145 
	C680.359863,97.661934 678.479370,99.278526 681.663086,111.826706 
	C683.798889,120.244759 687.416260,128.286911 690.517456,136.905029 
	C689.372437,137.595200 687.360840,138.708984 685.451965,139.977264 
	C680.246094,143.436096 675.563416,147.387924 673.647705,153.676987 
	C671.777039,159.817993 673.825378,164.948044 677.387207,169.988602 
	C680.507812,174.404633 684.241394,171.783600 688.689819,171.608429 
M846.740601,325.068695 
	C845.451721,329.935120 844.162903,334.801544 842.599243,340.705414 
	C835.934753,316.500366 829.538574,293.453644 823.283020,270.368805 
	C822.247742,266.548523 820.225098,264.115692 816.292480,263.595673 
	C812.233521,263.058929 808.372009,263.343781 806.278381,266.352661 
	C810.016418,278.012054 813.549561,288.885925 816.987061,299.789948 
	C821.780273,314.994263 826.448730,330.238007 831.283752,345.428864 
	C832.897949,350.500305 835.871826,352.189270 841.661926,351.870422 
	C848.891479,351.472290 851.051331,350.067139 852.401123,344.802734 
	C855.949707,330.963074 859.468140,317.115662 863.026306,303.278442 
	C864.997925,295.611023 867.025208,287.957855 869.331116,279.136261 
	C875.401367,302.094513 881.229431,323.748779 886.791870,345.471100 
	C888.046387,350.370239 891.244751,351.741333 895.548157,351.902039 
	C902.091187,352.146515 905.678406,350.229340 907.182068,345.827484 
	C909.866699,337.968475 912.527588,330.101379 915.188660,322.234344 
	C920.295959,307.135132 925.548950,292.082886 930.448181,276.916412 
	C933.952454,266.067963 929.759521,261.642914 918.537048,263.858521 
	C917.747742,264.014404 916.988464,264.322784 916.958801,264.331909 
	C912.607727,290.200226 904.182617,314.397491 897.799683,339.171448 
	C891.418396,316.401581 885.625671,293.718536 879.834778,271.035004 
	C878.286560,264.970612 875.907043,262.897552 869.636475,263.017700 
	C866.254517,263.082458 862.887146,263.908600 860.291809,264.279846 
	C859.807312,268.604187 859.778015,272.089600 858.985718,275.391998 
	C855.071533,291.707336 850.955444,307.974243 846.740601,325.068695 
M671.316467,333.268829 
	C673.127136,345.187469 679.201233,351.680908 690.442444,351.535645 
	C696.692810,351.454834 703.257812,349.705292 709.060303,347.244354 
	C717.187805,343.797272 722.168213,336.463531 726.924561,328.506165 
	C727.630066,333.036591 727.912720,336.871613 728.859802,340.534821 
	C731.207214,349.614319 739.411316,353.834473 748.208740,350.760620 
	C754.529968,348.551910 756.573303,343.524048 753.659912,337.347412 
	C745.732178,341.731659 742.281433,339.608307 742.144653,330.253448 
	C742.122742,328.754486 742.147461,327.254944 742.140320,325.755707 
	C742.087769,314.762177 742.366455,303.753815 741.878174,292.779602 
	C741.445801,283.061493 738.806641,273.964630 730.242859,267.946808 
	C718.706177,259.839844 692.989807,260.543518 681.683838,269.142609 
	C674.990906,274.233124 673.193115,283.737152 677.527527,291.115509 
	C681.713013,298.240601 690.007935,299.659668 696.709595,294.352478 
	C695.679199,293.292633 694.602783,292.277069 693.630859,291.169830 
	C689.252075,286.180939 689.428894,277.173615 693.959839,272.911926 
	C702.053223,265.299500 718.514404,268.135803 723.237793,278.120819 
	C726.739441,285.523163 726.709351,293.463684 726.508606,301.844666 
	C724.350281,301.844666 722.709412,301.791534 721.072876,301.853149 
	C709.333191,302.295105 697.867554,304.024933 687.337402,309.631866 
	C678.186096,314.504547 671.439880,321.162933 671.316467,333.268829 
M389.406189,385.103729 
	C396.238098,386.290314 403.077698,388.522156 409.900543,388.472198 
	C432.552338,388.306305 446.125885,375.871216 447.961700,353.313263 
	C449.093964,339.400391 448.789398,325.362305 448.918182,311.378479 
	C449.039429,298.216644 449.024200,285.049805 448.797424,271.889862 
	C448.653687,263.548584 441.013611,259.524750 433.991486,263.994202 
	C432.934265,264.667114 432.088043,266.570862 432.103973,267.893646 
	C432.298157,283.985046 433.127380,300.083008 432.818573,316.160614 
	C432.649536,324.960785 429.281708,333.148315 422.214203,339.096466 
	C412.632446,347.160645 400.898804,343.560547 397.994293,331.494598 
	C396.799011,326.529114 396.306427,321.300659 396.220947,316.179688 
	C395.976288,301.519775 396.130615,286.853546 396.073212,272.190033 
	C396.046234,265.298279 392.616913,261.866730 386.485107,262.420837 
	C380.224426,262.986603 379.638458,264.938904 380.028870,272.394623 
	C380.803131,287.180389 380.591858,302.015106 381.128937,316.817200 
	C381.344910,322.769257 381.982971,328.794861 383.279205,334.597015 
	C385.032684,342.445862 390.002289,347.847260 397.923248,350.166565 
	C412.020233,354.294189 425.754364,348.626892 432.869293,335.785095 
	C433.366760,334.887238 433.972046,334.049072 435.127869,332.246185 
	C434.407257,345.353607 435.212585,357.434235 430.168060,368.768372 
	C424.951996,380.487976 411.997742,385.996643 400.789581,381.144928 
	C393.555817,378.013611 391.362183,370.298828 395.861084,363.809387 
	C396.303223,363.171661 396.750549,362.537537 397.190979,361.908142 
	C390.524170,356.976929 381.958618,359.777008 379.926575,367.277557 
	C377.945709,374.589172 380.886017,380.448761 389.406189,385.103729 
M302.100708,279.014496 
	C302.535553,264.712402 302.699615,250.394440 303.535889,236.115845 
	C303.880249,230.235474 303.228485,228.503799 297.286865,227.836136 
	C290.347687,227.056351 287.064575,230.007477 287.060791,237.173874 
	C287.042419,271.671326 287.052002,306.168762 287.054871,340.666229 
	C287.054962,341.665680 286.722260,342.894531 287.175964,343.623566 
	C288.839478,346.296661 290.308746,350.235382 292.716583,351.010956 
	C295.732880,351.982544 299.627502,350.419678 303.075531,349.648773 
	C303.586029,349.534637 304.032623,347.749451 303.990906,346.759216 
	C303.410583,332.985321 302.302734,319.217407 302.233948,305.443481 
	C302.181915,295.020538 304.358704,284.842651 311.523102,276.600342 
	C316.164642,271.260406 322.203735,269.278290 329.106567,271.002136 
	C335.410248,272.576385 338.237640,277.453735 339.168915,283.387604 
	C340.042145,288.951660 340.739685,294.596191 340.843414,300.217712 
	C341.098602,314.045349 340.936401,327.880280 341.005005,341.711975 
	C341.041229,349.012451 344.335968,352.361420 350.789398,351.854523 
	C356.859039,351.377808 357.352264,349.531708 356.963470,341.697479 
	C356.212921,326.573761 356.493683,311.400208 355.826202,296.270294 
	C355.550812,290.028015 354.635162,283.623260 352.760864,277.687073 
	C349.969849,268.847595 343.318542,263.830383 333.980957,262.730469 
	C319.414124,261.014526 309.984406,265.987366 302.100708,279.014496 
M1035.686035,271.239044 
	C1041.088135,272.530182 1044.444092,276.096832 1045.736938,281.276642 
	C1046.856567,285.762909 1047.810303,290.414551 1047.899902,295.011383 
	C1048.204956,310.664764 1048.055542,326.326508 1048.160767,341.984497 
	C1048.216064,350.217804 1054.682495,354.225250 1062.171021,350.809845 
	C1064.533813,349.732239 1065.560059,348.435028 1065.087280,345.427704 
	C1064.109009,339.207031 1063.505737,332.885040 1063.334717,326.588837 
	C1063.009277,314.603180 1063.471069,302.588348 1062.897095,290.619598 
	C1062.395630,280.159973 1059.528931,270.337128 1049.255737,265.040985 
	C1035.909668,258.160645 1018.518127,263.428833 1010.759399,276.347565 
	C1010.022888,277.573761 1009.293640,278.804352 1008.283081,280.498901 
	C1007.804565,277.860168 1007.484863,275.791351 1007.048889,273.747314 
	C1005.287659,265.488617 999.771606,261.592285 991.464355,262.695892 
	C984.264709,263.652344 981.569153,268.994843 984.941162,275.624481 
	C991.735291,273.134003 993.803894,274.554382 994.094055,281.938416 
	C994.152832,283.435638 994.142151,284.936096 994.142395,286.435059 
	C994.145447,304.260071 994.124878,322.085114 994.172119,339.910004 
	C994.177368,341.886017 993.954102,344.253998 994.915100,345.745575 
	C996.402588,348.054352 998.613403,351.049988 1000.892334,351.415161 
	C1004.001648,351.913483 1007.493652,350.314087 1010.734985,349.329163 
	C1011.136169,349.207275 1011.140503,347.337097 1011.104126,346.284790 
	C1010.623291,332.351746 1009.817749,318.421692 1009.737854,304.487213 
	C1009.707886,299.262238 1010.839966,293.881165 1012.316101,288.826447 
	C1015.948547,276.387329 1023.863892,270.422424 1035.686035,271.239044 
M1207.362671,315.996124 
	C1211.575562,318.320160 1216.191528,320.133209 1219.918701,323.073029 
	C1228.044922,329.482635 1226.331909,340.622467 1216.406372,343.281036 
	C1210.084229,344.974457 1202.871948,345.012695 1196.367065,343.934113 
	C1188.245117,342.587311 1184.236816,336.345490 1184.005859,328.044922 
	C1183.952026,326.110962 1183.997803,324.174225 1183.997803,322.292725 
	C1175.662842,321.620758 1171.786621,325.268799 1172.100708,332.903778 
	C1172.412964,340.495300 1177.592896,347.046326 1186.345825,349.650848 
	C1198.604736,353.298645 1210.970093,353.152802 1223.197266,349.137115 
	C1224.140137,348.827454 1225.052734,348.399292 1225.938843,347.946960 
	C1242.466309,339.510712 1243.804932,319.171936 1228.115723,309.305420 
	C1220.121460,304.278076 1211.215210,300.723053 1203.000488,296.015137 
	C1198.910156,293.670929 1194.707642,290.807465 1191.861572,287.160095 
	C1186.377441,280.131805 1189.522583,272.070160 1198.131714,269.856079 
	C1201.144409,269.081299 1204.377441,268.804993 1207.497803,268.870941 
	C1218.484253,269.103027 1223.182983,273.816650 1223.734253,284.730927 
	C1223.773071,285.497986 1224.002930,286.255402 1224.153687,287.069702 
	C1228.506592,287.330109 1232.686768,287.539978 1234.782471,283.089417 
	C1237.003540,278.372772 1235.946899,273.774109 1232.436768,270.190491 
	C1230.294800,268.003754 1227.475220,266.070251 1224.596680,265.088226 
	C1213.618164,261.342987 1202.395874,260.781860 1191.256348,264.416016 
	C1178.663086,268.524475 1173.693115,276.804260 1176.020996,289.744812 
	C1177.410645,297.470520 1182.279419,302.924133 1188.878540,306.680481 
	C1194.649048,309.965271 1200.734131,312.697388 1207.362671,315.996124 
M655.087097,336.442749 
	C657.549255,329.395966 657.502869,328.617981 655.454895,326.506317 
	C651.393250,330.646240 647.973633,335.922760 643.125305,338.745087 
	C627.166504,348.035156 607.443665,338.846344 604.250305,320.550598 
	C602.755005,311.983795 602.808777,302.994019 603.349792,294.269684 
	C603.836670,286.418182 606.702881,279.021149 612.842773,273.428680 
	C618.589905,268.193909 628.723083,267.186981 635.228943,271.218994 
	C639.925659,274.129791 642.060669,280.776337 639.972107,287.248413 
	C639.201233,289.637146 637.520386,291.732239 636.239868,293.987213 
	C642.714050,299.458405 651.813660,297.289490 654.896240,289.434235 
	C658.131531,281.189819 654.176636,271.409790 645.646729,266.472321 
	C634.436096,259.983154 608.382996,259.709045 596.138428,275.217712 
	C587.423767,286.255554 585.540527,299.061676 586.375366,312.452087 
	C588.570007,347.654449 613.761230,355.560547 636.220032,350.893311 
	C644.415833,349.190155 650.931091,344.860931 655.087097,336.442749 
M465.490356,275.039612 
	C475.153503,275.131165 475.156189,275.131134 475.296021,284.051483 
	C475.316895,285.383179 475.299408,286.715424 475.299438,288.047424 
	C475.299530,305.862793 475.319458,323.678192 475.284241,341.493500 
	C475.276489,345.429749 476.166626,349.502960 480.101318,350.431732 
	C483.480743,351.229462 487.383484,350.065460 490.988129,349.404938 
	C491.595947,349.293579 492.296570,347.306854 492.221313,346.238220 
	C491.744141,339.459137 490.399231,332.676270 490.586212,325.929169 
	C490.953339,312.681396 491.483887,299.365112 493.315369,286.268616 
	C494.002075,281.358368 497.828308,276.304962 501.531006,272.637054 
	C503.469238,270.717041 508.704987,270.507507 511.581207,271.673065 
	C513.817505,272.579285 515.718018,276.727142 515.949341,279.581573 
	C516.266418,283.495117 514.862976,287.548065 514.176880,291.661011 
	C520.582947,295.150787 527.708679,292.194733 529.934143,284.836151 
	C532.696045,275.703735 528.128235,266.774078 519.084229,263.625458 
	C508.148132,259.818115 497.385712,263.919525 491.792603,274.051453 
	C490.935059,275.604919 490.184479,277.217468 489.281311,279.007019 
	C488.335724,275.518463 487.890991,272.138062 486.520538,269.187622 
	C483.760803,263.246185 476.179474,260.843872 469.743591,263.430908 
	C465.016449,265.331085 463.534332,268.826660 465.490356,275.039612 
M796.038208,337.830566 
	C789.408752,341.767120 785.189209,339.520569 784.869019,331.881500 
	C784.848083,331.382660 784.849487,330.882660 784.850403,330.383179 
	C784.896484,305.407532 784.817688,280.430603 785.067688,255.456970 
	C785.142273,248.007309 786.244934,240.572113 786.610535,233.117233 
	C786.674255,231.817734 785.580566,229.437012 784.730835,229.295105 
	C781.113037,228.690887 777.168396,227.895355 773.756104,228.773834 
	C769.843567,229.781113 769.717651,233.901321 769.721802,237.547943 
	C769.757202,268.685516 769.737000,299.823151 769.754089,330.960785 
	C769.755188,332.955902 769.775757,334.971588 770.044617,336.942596 
	C771.562256,348.067535 781.670166,354.374390 792.019653,350.717560 
	C798.721863,348.349457 800.741638,342.535248 796.038208,337.830566 
M240.924057,255.500031 
	C240.924057,271.819244 240.908966,288.138489 240.929504,304.457672 
	C240.942505,314.781433 240.705307,325.117584 241.129318,335.425598 
	C241.635025,347.719635 253.373215,355.099548 264.121582,350.275848 
	C270.001282,347.637115 271.513000,343.073730 268.349152,337.514374 
	C260.124023,342.157043 255.971985,339.666382 255.965302,330.022522 
	C255.953995,313.703522 255.735489,297.379242 256.075378,281.067017 
	C256.411011,264.958313 257.352051,248.862549 257.942627,232.757996 
	C257.979187,231.760162 257.418243,229.945541 256.891052,229.849319 
	C253.120880,229.161194 249.156509,228.009674 245.510742,228.597794 
	C241.879440,229.183609 240.866562,232.875122 240.906982,236.515823 
	C240.973526,242.509903 240.924423,248.505264 240.924057,255.500031 
M966.911255,347.224762 
	C966.255981,336.476501 965.282227,325.735931 965.023682,314.978119 
	C964.675964,300.513672 964.871399,286.035919 964.853638,271.563873 
	C964.848999,267.796326 963.865723,263.934753 959.978699,263.297577 
	C956.510498,262.729065 952.694519,263.966949 949.110535,264.761810 
	C948.577271,264.880066 948.144287,266.968384 948.228821,268.103271 
	C948.696411,274.377777 949.757446,280.633667 949.842041,286.906342 
	C950.088989,305.201843 950.001709,323.502319 949.970581,341.800720 
	C949.963257,346.126892 950.887329,350.068420 955.427795,351.381989 
	C959.702271,352.618622 964.023071,352.312683 966.911255,347.224762 
M549.921143,292.505188 
	C549.945374,297.336426 549.981628,302.167664 549.991394,306.998932 
	C550.015198,318.827911 550.063904,330.657043 550.021973,342.485840 
	C550.008423,346.301300 551.024231,350.042633 554.818054,350.866547 
	C558.083618,351.575684 561.798889,350.601288 565.218445,349.899323 
	C565.934204,349.752350 566.704834,347.513550 566.634521,346.285400 
	C566.226929,339.164124 565.193420,332.062836 565.081360,324.943604 
	C564.800781,307.121246 564.866455,289.292816 564.874695,271.466888 
	C564.876465,267.602448 563.707581,263.853790 559.945923,263.219147 
	C556.482788,262.634888 552.649963,263.987122 549.045532,264.782928 
	C548.532837,264.896118 548.062988,266.706543 548.127991,267.694916 
	C548.650574,275.637543 549.306213,283.571350 549.921143,292.505188 
M965.432800,244.805740 
	C967.272034,240.114029 966.821411,235.397308 962.480408,232.899063 
	C959.746216,231.325516 955.424561,231.052216 952.316833,231.944122 
	C948.155396,233.138412 945.910217,237.391556 947.192627,241.517349 
	C948.150513,244.599075 950.710876,248.136368 953.510864,249.471436 
	C957.862000,251.546021 962.292419,249.930115 965.432800,244.805740 
M563.242676,247.751297 
	C567.212219,242.658310 567.431885,237.776215 563.867859,233.856186 
	C560.605896,230.268478 555.108337,229.625305 551.189087,232.372910 
	C546.806946,235.445038 545.564270,241.161621 548.319885,245.572021 
	C551.389343,250.484726 556.676208,251.457550 563.242676,247.751297 
z"/>
<path fill="#FBFBFB" opacity="1.000000" stroke="none" 
	d="
M1106.631104,264.490662 
	C1121.062134,260.765381 1134.694580,261.908417 1147.820679,268.167511 
	C1152.823242,270.552917 1155.308350,273.892181 1155.141602,280.180145 
	C1154.611694,300.148468 1155.036865,320.140320 1154.887329,340.121582 
	C1154.845093,345.761505 1154.645630,351.502350 1153.577271,357.014496 
	C1149.397705,378.579437 1134.734253,389.751190 1111.376709,388.460175 
	C1104.642944,388.087982 1097.648193,385.932129 1091.508423,383.035583 
	C1084.503662,379.731049 1082.023682,371.524200 1084.108398,364.112000 
	C1086.235840,356.547791 1094.833740,353.756287 1101.674438,358.380035 
	C1100.476562,360.693726 1098.819824,362.880524 1098.169067,365.334167 
	C1095.857788,374.048889 1100.490112,380.950958 1109.383057,382.543488 
	C1120.252441,384.489960 1130.520874,379.050537 1135.120728,368.882629 
	C1140.190430,357.676392 1139.992065,345.819366 1139.447754,333.737946 
	C1134.091431,344.505127 1125.602051,350.089478 1113.682129,350.358978 
	C1099.151245,350.687469 1088.958496,343.456940 1085.447510,329.364502 
	C1081.289673,312.675018 1081.324219,296.084503 1088.949829,280.162964 
	C1092.557007,272.631409 1098.121460,267.174835 1106.631104,264.490662 
M1140.018433,301.500824 
	C1140.018433,297.568390 1140.018433,293.635956 1140.018433,289.703491 
	C1139.762817,289.716370 1139.507080,289.729248 1139.251465,289.742126 
	C1139.251465,297.794952 1139.251465,305.847748 1139.251465,313.900574 
	C1139.507080,313.901123 1139.762817,313.901672 1140.018433,313.902222 
	C1140.018433,310.096344 1140.018433,306.290497 1140.018433,301.500824 
z"/>
<path fill="#F3F3F3" opacity="1.000000" stroke="none" 
	d="
M932.000244,172.374390 
	C1034.458862,172.374420 1136.417480,172.374420 1238.766113,172.374420 
	C1238.766113,177.203827 1238.766113,181.753677 1238.766113,186.639191 
	C1101.829468,186.639191 964.796997,186.639191 827.447266,186.639191 
	C827.447266,182.133911 827.447266,177.706787 827.447266,172.374359 
	C862.052979,172.374359 896.776550,172.374359 932.000244,172.374390 
z"/>
<path fill="#F3F3F3" opacity="1.000000" stroke="none" 
	d="
M316.000183,172.374390 
	C428.439819,172.374420 540.379456,172.374420 652.593994,172.374420 
	C652.593994,177.305023 652.593994,181.728577 652.593994,186.560730 
	C515.590515,186.560730 378.567017,186.560730 241.193222,186.560730 
	C241.193222,182.117569 241.193222,177.546432 241.193222,172.374359 
	C265.942261,172.374359 290.721222,172.374359 316.000183,172.374390 
z"/>
<path fill="#F4F4F4" opacity="1.000000" stroke="none" 
	d="
M429.000122,143.254333 
	C503.786591,143.254349 578.073059,143.254349 652.613098,143.254349 
	C652.613098,148.231293 652.613098,152.668900 652.613098,157.506195 
	C515.593994,157.506195 378.547760,157.506195 241.173035,157.506195 
	C241.173035,153.013382 241.173035,148.439072 241.173035,143.254318 
	C303.611328,143.254318 366.055725,143.254318 429.000122,143.254333 
z"/>
<path fill="#F4F4F4" opacity="1.000000" stroke="none" 
	d="
M995.000000,157.901245 
	C938.883301,157.901245 883.266602,157.901245 827.391724,157.901245 
	C827.391724,152.972946 827.391724,148.529526 827.391724,143.668579 
	C964.387817,143.668579 1101.429321,143.668579 1238.813110,143.668579 
	C1238.813110,148.185577 1238.813110,152.750214 1238.813110,157.901245 
	C1157.703613,157.901245 1076.601807,157.901245 995.000000,157.901245 
z"/>
<path fill="#F4F4F4" opacity="1.000000" stroke="none" 
	d="
M688.245850,171.653656 
	C684.241394,171.783600 680.507812,174.404633 677.387207,169.988602 
	C673.825378,164.948044 671.777039,159.817993 673.647705,153.676987 
	C675.563416,147.387924 680.246094,143.436096 685.451965,139.977264 
	C687.360840,138.708984 689.372437,137.595200 690.517456,136.905029 
	C687.416260,128.286911 683.798889,120.244759 681.663086,111.826706 
	C678.479370,99.278526 680.359863,97.661934 693.163452,99.889145 
	C696.081848,100.396797 698.947388,101.207794 702.012817,101.919968 
	C703.244934,96.628754 704.204285,91.472824 705.678223,86.468491 
	C707.175781,81.384033 709.077820,80.636749 713.718567,83.257431 
	C718.190063,85.782539 722.416138,88.742310 726.622742,91.429825 
	C729.654175,87.210411 732.777893,82.726662 736.048462,78.352692 
	C738.743164,74.748779 741.611755,75.093452 744.155579,78.525177 
	C747.311768,82.782936 750.315491,87.153732 753.351135,91.427864 
	C757.612793,88.718361 761.942261,85.709373 766.515076,83.132179 
	C770.895752,80.663239 772.846130,81.463226 774.236816,86.251045 
	C775.666321,91.172371 776.645569,96.224480 777.943298,101.735046 
	C782.055786,100.928513 786.523193,99.917343 791.037170,99.197899 
	C798.295593,98.041046 799.705811,99.423943 799.148499,106.700836 
	C798.329285,117.397362 794.266235,126.944351 788.473755,136.034302 
	C792.046936,138.466415 795.628479,140.530609 798.780945,143.117630 
	C809.674744,152.057373 809.879639,163.514267 799.410156,172.922379 
	C792.156067,179.441086 783.304016,182.794785 774.051208,185.189880 
	C752.194397,190.847595 730.260925,190.708191 708.266663,185.934204 
	C704.495605,185.115692 702.185974,183.703690 701.657227,179.255798 
	C700.952209,173.325684 696.780273,171.220581 688.245850,171.653656 
M773.656921,177.224213 
	C780.349854,174.019836 787.592957,171.603973 793.598389,167.414185 
	C801.335693,162.016174 801.004395,155.351532 793.828125,149.269501 
	C791.691833,147.458984 789.109070,146.185532 786.812683,144.551071 
	C784.216064,142.703018 782.424805,143.234787 780.039001,145.431870 
	C767.652161,156.839264 753.107544,163.157944 736.048706,161.866974 
	C721.965637,160.801178 709.871704,154.827667 699.506287,145.244781 
	C698.495728,144.310471 696.272583,143.197296 695.581604,143.649185 
	C691.053467,146.610458 686.287537,149.514084 682.674988,153.429108 
	C681.076843,155.161072 681.443787,159.334000 682.072876,162.140045 
	C682.282532,163.075256 686.112488,163.726303 688.240906,163.615128 
	C699.232971,163.040970 704.676819,166.255569 709.129333,175.945908 
	C709.729065,177.251205 711.621399,178.469986 713.113037,178.781433 
	C733.123108,182.959457 753.069397,182.558609 773.656921,177.224213 
M744.662415,92.951881 
	C743.239075,90.796768 741.815735,88.641663 740.336121,86.401329 
	C724.910828,102.303520 725.011841,136.973572 740.156189,151.527267 
	C752.940552,136.895401 754.940857,113.024307 744.662415,92.951881 
M708.636658,113.753021 
	C702.319092,111.308701 696.001465,108.864388 689.169373,106.221001 
	C689.530396,127.443321 710.860962,150.864426 729.203979,152.433685 
	C726.763245,145.072037 723.288696,137.601974 721.999023,129.772049 
	C720.922119,123.234100 717.615234,119.448288 712.666016,116.192360 
	C711.557617,115.463226 710.426514,114.768799 708.636658,113.753021 
M785.067139,126.451866 
	C788.135559,120.425789 790.784546,114.280991 790.978577,107.132362 
	C780.250549,108.816849 771.099426,112.761497 763.106506,119.389839 
	C760.608398,121.461510 759.219055,123.688034 758.636414,127.174088 
	C757.637024,133.153992 755.526794,138.972198 753.592468,144.761261 
	C752.697388,147.440216 751.118591,149.890747 749.467285,153.214828 
	C765.496582,149.107437 776.824829,140.409531 785.067139,126.451866 
M757.123901,103.214508 
	C757.803955,106.090332 758.484009,108.966156 759.169495,111.865242 
	C770.832458,105.544662 772.020325,102.596695 767.073486,91.588448 
	C764.485962,93.452965 761.729431,95.030380 759.530151,97.178329 
	C758.222534,98.455444 757.791809,100.630379 757.123901,103.214508 
M723.244995,100.002045 
	C719.804321,97.074272 716.363586,94.146492 712.611450,90.953674 
	C708.564819,104.373741 708.984619,105.359283 720.829590,111.881264 
	C721.679565,108.170372 722.522400,104.490715 723.244995,100.002045 
z"/>
<path fill="#F9F9F9" opacity="1.000000" stroke="none" 
	d="
M846.825562,324.663452 
	C850.955444,307.974243 855.071533,291.707336 858.985718,275.391998 
	C859.778015,272.089600 859.807312,268.604187 860.291809,264.279846 
	C862.887146,263.908600 866.254517,263.082458 869.636475,263.017700 
	C875.907043,262.897552 878.286560,264.970612 879.834778,271.035004 
	C885.625671,293.718536 891.418396,316.401581 897.799683,339.171448 
	C904.182617,314.397491 912.607727,290.200226 916.958801,264.331909 
	C916.988464,264.322784 917.747742,264.014404 918.537048,263.858521 
	C929.759521,261.642914 933.952454,266.067963 930.448181,276.916412 
	C925.548950,292.082886 920.295959,307.135132 915.188660,322.234344 
	C912.527588,330.101379 909.866699,337.968475 907.182068,345.827484 
	C905.678406,350.229340 902.091187,352.146515 895.548157,351.902039 
	C891.244751,351.741333 888.046387,350.370239 886.791870,345.471100 
	C881.229431,323.748779 875.401367,302.094513 869.331116,279.136261 
	C867.025208,287.957855 864.997925,295.611023 863.026306,303.278442 
	C859.468140,317.115662 855.949707,330.963074 852.401123,344.802734 
	C851.051331,350.067139 848.891479,351.472290 841.661926,351.870422 
	C835.871826,352.189270 832.897949,350.500305 831.283752,345.428864 
	C826.448730,330.238007 821.780273,314.994263 816.987061,299.789948 
	C813.549561,288.885925 810.016418,278.012054 806.278381,266.352661 
	C808.372009,263.343781 812.233521,263.058929 816.292480,263.595673 
	C820.225098,264.115692 822.247742,266.548523 823.283020,270.368805 
	C829.538574,293.453644 835.934753,316.500366 842.599243,340.705414 
	C844.162903,334.801544 845.451721,329.935120 846.825562,324.663452 
z"/>
<path fill="#F9F9F9" opacity="1.000000" stroke="none" 
	d="
M671.313599,332.846802 
	C671.439880,321.162933 678.186096,314.504547 687.337402,309.631866 
	C697.867554,304.024933 709.333191,302.295105 721.072876,301.853149 
	C722.709412,301.791534 724.350281,301.844666 726.508606,301.844666 
	C726.709351,293.463684 726.739441,285.523163 723.237793,278.120819 
	C718.514404,268.135803 702.053223,265.299500 693.959839,272.911926 
	C689.428894,277.173615 689.252075,286.180939 693.630859,291.169830 
	C694.602783,292.277069 695.679199,293.292633 696.709595,294.352478 
	C690.007935,299.659668 681.713013,298.240601 677.527527,291.115509 
	C673.193115,283.737152 674.990906,274.233124 681.683838,269.142609 
	C692.989807,260.543518 718.706177,259.839844 730.242859,267.946808 
	C738.806641,273.964630 741.445801,283.061493 741.878174,292.779602 
	C742.366455,303.753815 742.087769,314.762177 742.140320,325.755707 
	C742.147461,327.254944 742.122742,328.754486 742.144653,330.253448 
	C742.281433,339.608307 745.732178,341.731659 753.659912,337.347412 
	C756.573303,343.524048 754.529968,348.551910 748.208740,350.760620 
	C739.411316,353.834473 731.207214,349.614319 728.859802,340.534821 
	C727.912720,336.871613 727.630066,333.036591 726.924561,328.506165 
	C722.168213,336.463531 717.187805,343.797272 709.060303,347.244354 
	C703.257812,349.705292 696.692810,351.454834 690.442444,351.535645 
	C679.201233,351.680908 673.127136,345.187469 671.313599,332.846802 
z"/>
<path fill="#F9F9F9" opacity="1.000000" stroke="none" 
	d="
M389.062500,384.951477 
	C380.886017,380.448761 377.945709,374.589172 379.926575,367.277557 
	C381.958618,359.777008 390.524170,356.976929 397.190979,361.908142 
	C396.750549,362.537537 396.303223,363.171661 395.861084,363.809387 
	C391.362183,370.298828 393.555817,378.013611 400.789581,381.144928 
	C411.997742,385.996643 424.951996,380.487976 430.168060,368.768372 
	C435.212585,357.434235 434.407257,345.353607 435.127869,332.246185 
	C433.972046,334.049072 433.366760,334.887238 432.869293,335.785095 
	C425.754364,348.626892 412.020233,354.294189 397.923248,350.166565 
	C390.002289,347.847260 385.032684,342.445862 383.279205,334.597015 
	C381.982971,328.794861 381.344910,322.769257 381.128937,316.817200 
	C380.591858,302.015106 380.803131,287.180389 380.028870,272.394623 
	C379.638458,264.938904 380.224426,262.986603 386.485107,262.420837 
	C392.616913,261.866730 396.046234,265.298279 396.073212,272.190033 
	C396.130615,286.853546 395.976288,301.519775 396.220947,316.179688 
	C396.306427,321.300659 396.799011,326.529114 397.994293,331.494598 
	C400.898804,343.560547 412.632446,347.160645 422.214203,339.096466 
	C429.281708,333.148315 432.649536,324.960785 432.818573,316.160614 
	C433.127380,300.083008 432.298157,283.985046 432.103973,267.893646 
	C432.088043,266.570862 432.934265,264.667114 433.991486,263.994202 
	C441.013611,259.524750 448.653687,263.548584 448.797424,271.889862 
	C449.024200,285.049805 449.039429,298.216644 448.918182,311.378479 
	C448.789398,325.362305 449.093964,339.400391 447.961700,353.313263 
	C446.125885,375.871216 432.552338,388.306305 409.900543,388.472198 
	C403.077698,388.522156 396.238098,386.290314 389.062500,384.951477 
z"/>
<path fill="#FAFAFA" opacity="1.000000" stroke="none" 
	d="
M302.455444,279.060089 
	C309.984406,265.987366 319.414124,261.014526 333.980957,262.730469 
	C343.318542,263.830383 349.969849,268.847595 352.760864,277.687073 
	C354.635162,283.623260 355.550812,290.028015 355.826202,296.270294 
	C356.493683,311.400208 356.212921,326.573761 356.963470,341.697479 
	C357.352264,349.531708 356.859039,351.377808 350.789398,351.854523 
	C344.335968,352.361420 341.041229,349.012451 341.005005,341.711975 
	C340.936401,327.880280 341.098602,314.045349 340.843414,300.217712 
	C340.739685,294.596191 340.042145,288.951660 339.168915,283.387604 
	C338.237640,277.453735 335.410248,272.576385 329.106567,271.002136 
	C322.203735,269.278290 316.164642,271.260406 311.523102,276.600342 
	C304.358704,284.842651 302.181915,295.020538 302.233948,305.443481 
	C302.302734,319.217407 303.410583,332.985321 303.990906,346.759216 
	C304.032623,347.749451 303.586029,349.534637 303.075531,349.648773 
	C299.627502,350.419678 295.732880,351.982544 292.716583,351.010956 
	C290.308746,350.235382 288.839478,346.296661 287.175964,343.623566 
	C286.722260,342.894531 287.054962,341.665680 287.054871,340.666229 
	C287.052002,306.168762 287.042419,271.671326 287.060791,237.173874 
	C287.064575,230.007477 290.347687,227.056351 297.286865,227.836136 
	C303.228485,228.503799 303.880249,230.235474 303.535889,236.115845 
	C302.699615,250.394440 302.535553,264.712402 302.455444,279.060089 
z"/>
<path fill="#F8F8F8" opacity="1.000000" stroke="none" 
	d="
M1035.283447,271.165405 
	C1023.863892,270.422424 1015.948547,276.387329 1012.316101,288.826447 
	C1010.839966,293.881165 1009.707886,299.262238 1009.737854,304.487213 
	C1009.817749,318.421692 1010.623291,332.351746 1011.104126,346.284790 
	C1011.140503,347.337097 1011.136169,349.207275 1010.734985,349.329163 
	C1007.493652,350.314087 1004.001648,351.913483 1000.892334,351.415161 
	C998.613403,351.049988 996.402588,348.054352 994.915100,345.745575 
	C993.954102,344.253998 994.177368,341.886017 994.172119,339.910004 
	C994.124878,322.085114 994.145447,304.260071 994.142395,286.435059 
	C994.142151,284.936096 994.152832,283.435638 994.094055,281.938416 
	C993.803894,274.554382 991.735291,273.134003 984.941162,275.624481 
	C981.569153,268.994843 984.264709,263.652344 991.464355,262.695892 
	C999.771606,261.592285 1005.287659,265.488617 1007.048889,273.747314 
	C1007.484863,275.791351 1007.804565,277.860168 1008.283081,280.498901 
	C1009.293640,278.804352 1010.022888,277.573761 1010.759399,276.347565 
	C1018.518127,263.428833 1035.909668,258.160645 1049.255737,265.040985 
	C1059.528931,270.337128 1062.395630,280.159973 1062.897095,290.619598 
	C1063.471069,302.588348 1063.009277,314.603180 1063.334717,326.588837 
	C1063.505737,332.885040 1064.109009,339.207031 1065.087280,345.427704 
	C1065.560059,348.435028 1064.533813,349.732239 1062.171021,350.809845 
	C1054.682495,354.225250 1048.216064,350.217804 1048.160767,341.984497 
	C1048.055542,326.326508 1048.204956,310.664764 1047.899902,295.011383 
	C1047.810303,290.414551 1046.856567,285.762909 1045.736938,281.276642 
	C1044.444092,276.096832 1041.088135,272.530182 1035.283447,271.165405 
z"/>
<path fill="#F6F6F6" opacity="1.000000" stroke="none" 
	d="
M1207.021484,315.834900 
	C1200.734131,312.697388 1194.649048,309.965271 1188.878540,306.680481 
	C1182.279419,302.924133 1177.410645,297.470520 1176.020996,289.744812 
	C1173.693115,276.804260 1178.663086,268.524475 1191.256348,264.416016 
	C1202.395874,260.781860 1213.618164,261.342987 1224.596680,265.088226 
	C1227.475220,266.070251 1230.294800,268.003754 1232.436768,270.190491 
	C1235.946899,273.774109 1237.003540,278.372772 1234.782471,283.089417 
	C1232.686768,287.539978 1228.506592,287.330109 1224.153687,287.069702 
	C1224.002930,286.255402 1223.773071,285.497986 1223.734253,284.730927 
	C1223.182983,273.816650 1218.484253,269.103027 1207.497803,268.870941 
	C1204.377441,268.804993 1201.144409,269.081299 1198.131714,269.856079 
	C1189.522583,272.070160 1186.377441,280.131805 1191.861572,287.160095 
	C1194.707642,290.807465 1198.910156,293.670929 1203.000488,296.015137 
	C1211.215210,300.723053 1220.121460,304.278076 1228.115723,309.305420 
	C1243.804932,319.171936 1242.466309,339.510712 1225.938843,347.946960 
	C1225.052734,348.399292 1224.140137,348.827454 1223.197266,349.137115 
	C1210.970093,353.152802 1198.604736,353.298645 1186.345825,349.650848 
	C1177.592896,347.046326 1172.412964,340.495300 1172.100708,332.903778 
	C1171.786621,325.268799 1175.662842,321.620758 1183.997803,322.292725 
	C1183.997803,324.174225 1183.952026,326.110962 1184.005859,328.044922 
	C1184.236816,336.345490 1188.245117,342.587311 1196.367065,343.934113 
	C1202.871948,345.012695 1210.084229,344.974457 1216.406372,343.281036 
	C1226.331909,340.622467 1228.044922,329.482635 1219.918701,323.073029 
	C1216.191528,320.133209 1211.575562,318.320160 1207.021484,315.834900 
z"/>
<path fill="#F7F7F7" opacity="1.000000" stroke="none" 
	d="
M654.954956,336.799225 
	C650.931091,344.860931 644.415833,349.190155 636.220032,350.893311 
	C613.761230,355.560547 588.570007,347.654449 586.375366,312.452087 
	C585.540527,299.061676 587.423767,286.255554 596.138428,275.217712 
	C608.382996,259.709045 634.436096,259.983154 645.646729,266.472321 
	C654.176636,271.409790 658.131531,281.189819 654.896240,289.434235 
	C651.813660,297.289490 642.714050,299.458405 636.239868,293.987213 
	C637.520386,291.732239 639.201233,289.637146 639.972107,287.248413 
	C642.060669,280.776337 639.925659,274.129791 635.228943,271.218994 
	C628.723083,267.186981 618.589905,268.193909 612.842773,273.428680 
	C606.702881,279.021149 603.836670,286.418182 603.349792,294.269684 
	C602.808777,302.994019 602.755005,311.983795 604.250305,320.550598 
	C607.443665,338.846344 627.166504,348.035156 643.125305,338.745087 
	C647.973633,335.922760 651.393250,330.646240 655.454895,326.506317 
	C657.502869,328.617981 657.549255,329.395966 654.954956,336.799225 
z"/>
<path fill="#F6F6F6" opacity="1.000000" stroke="none" 
	d="
M465.302826,274.693115 
	C463.534332,268.826660 465.016449,265.331085 469.743591,263.430908 
	C476.179474,260.843872 483.760803,263.246185 486.520538,269.187622 
	C487.890991,272.138062 488.335724,275.518463 489.281311,279.007019 
	C490.184479,277.217468 490.935059,275.604919 491.792603,274.051453 
	C497.385712,263.919525 508.148132,259.818115 519.084229,263.625458 
	C528.128235,266.774078 532.696045,275.703735 529.934143,284.836151 
	C527.708679,292.194733 520.582947,295.150787 514.176880,291.661011 
	C514.862976,287.548065 516.266418,283.495117 515.949341,279.581573 
	C515.718018,276.727142 513.817505,272.579285 511.581207,271.673065 
	C508.704987,270.507507 503.469238,270.717041 501.531006,272.637054 
	C497.828308,276.304962 494.002075,281.358368 493.315369,286.268616 
	C491.483887,299.365112 490.953339,312.681396 490.586212,325.929169 
	C490.399231,332.676270 491.744141,339.459137 492.221313,346.238220 
	C492.296570,347.306854 491.595947,349.293579 490.988129,349.404938 
	C487.383484,350.065460 483.480743,351.229462 480.101318,350.431732 
	C476.166626,349.502960 475.276489,345.429749 475.284241,341.493500 
	C475.319458,323.678192 475.299530,305.862793 475.299438,288.047424 
	C475.299408,286.715424 475.316895,285.383179 475.296021,284.051483 
	C475.156189,275.131134 475.153503,275.131165 465.302826,274.693115 
z"/>
<path fill="#FBFBFB" opacity="1.000000" stroke="none" 
	d="
M796.339844,337.621948 
	C800.741638,342.535248 798.721863,348.349457 792.019653,350.717560 
	C781.670166,354.374390 771.562256,348.067535 770.044617,336.942596 
	C769.775757,334.971588 769.755188,332.955902 769.754089,330.960785 
	C769.737000,299.823151 769.757202,268.685516 769.721802,237.547943 
	C769.717651,233.901321 769.843567,229.781113 773.756104,228.773834 
	C777.168396,227.895355 781.113037,228.690887 784.730835,229.295105 
	C785.580566,229.437012 786.674255,231.817734 786.610535,233.117233 
	C786.244934,240.572113 785.142273,248.007309 785.067688,255.456970 
	C784.817688,280.430603 784.896484,305.407532 784.850403,330.383179 
	C784.849487,330.882660 784.848083,331.382660 784.869019,331.881500 
	C785.189209,339.520569 789.408752,341.767120 796.339844,337.621948 
z"/>
<path fill="#FDFDFD" opacity="1.000000" stroke="none" 
	d="
M240.924057,255.000061 
	C240.924423,248.505264 240.973526,242.509903 240.906982,236.515823 
	C240.866562,232.875122 241.879440,229.183609 245.510742,228.597794 
	C249.156509,228.009674 253.120880,229.161194 256.891052,229.849319 
	C257.418243,229.945541 257.979187,231.760162 257.942627,232.757996 
	C257.352051,248.862549 256.411011,264.958313 256.075378,281.067017 
	C255.735489,297.379242 255.953995,313.703522 255.965302,330.022522 
	C255.971985,339.666382 260.124023,342.157043 268.349152,337.514374 
	C271.513000,343.073730 270.001282,347.637115 264.121582,350.275848 
	C253.373215,355.099548 241.635025,347.719635 241.129318,335.425598 
	C240.705307,325.117584 240.942505,314.781433 240.929504,304.457672 
	C240.908966,288.138489 240.924057,271.819244 240.924057,255.000061 
z"/>
<path fill="#FBFBFB" opacity="1.000000" stroke="none" 
	d="
M966.924072,347.632690 
	C964.023071,352.312683 959.702271,352.618622 955.427795,351.381989 
	C950.887329,350.068420 949.963257,346.126892 949.970581,341.800720 
	C950.001709,323.502319 950.088989,305.201843 949.842041,286.906342 
	C949.757446,280.633667 948.696411,274.377777 948.228821,268.103271 
	C948.144287,266.968384 948.577271,264.880066 949.110535,264.761810 
	C952.694519,263.966949 956.510498,262.729065 959.978699,263.297577 
	C963.865723,263.934753 964.848999,267.796326 964.853638,271.563873 
	C964.871399,286.035919 964.675964,300.513672 965.023682,314.978119 
	C965.282227,325.735931 966.255981,336.476501 966.924072,347.632690 
z"/>
<path fill="#FBFBFB" opacity="1.000000" stroke="none" 
	d="
M549.921143,292.006531 
	C549.306213,283.571350 548.650574,275.637543 548.127991,267.694916 
	C548.062988,266.706543 548.532837,264.896118 549.045532,264.782928 
	C552.649963,263.987122 556.482788,262.634888 559.945923,263.219147 
	C563.707581,263.853790 564.876465,267.602448 564.874695,271.466888 
	C564.866455,289.292816 564.800781,307.121246 565.081360,324.943604 
	C565.193420,332.062836 566.226929,339.164124 566.634521,346.285400 
	C566.704834,347.513550 565.934204,349.752350 565.218445,349.899323 
	C561.798889,350.601288 558.083618,351.575684 554.818054,350.866547 
	C551.024231,350.042633 550.008423,346.301300 550.021973,342.485840 
	C550.063904,330.657043 550.015198,318.827911 549.991394,306.998932 
	C549.981628,302.167664 549.945374,297.336426 549.921143,292.006531 
z"/>
<path fill="#F8F8F8" opacity="1.000000" stroke="none" 
	d="
M965.246765,245.124695 
	C962.292419,249.930115 957.862000,251.546021 953.510864,249.471436 
	C950.710876,248.136368 948.150513,244.599075 947.192627,241.517349 
	C945.910217,237.391556 948.155396,233.138412 952.316833,231.944122 
	C955.424561,231.052216 959.746216,231.325516 962.480408,232.899063 
	C966.821411,235.397308 967.272034,240.114029 965.246765,245.124695 
z"/>
<path fill="#F8F8F8" opacity="1.000000" stroke="none" 
	d="
M562.953369,247.981339 
	C556.676208,251.457550 551.389343,250.484726 548.319885,245.572021 
	C545.564270,241.161621 546.806946,235.445038 551.189087,232.372910 
	C555.108337,229.625305 560.605896,230.268478 563.867859,233.856186 
	C567.431885,237.776215 567.212219,242.658310 562.953369,247.981339 
z"/>
<path fill="#5E5E5E" opacity="1.000000" stroke="none" 
	d="
M1140.018433,301.992737 
	C1140.018433,306.290497 1140.018433,310.096344 1140.018433,313.902222 
	C1139.762817,313.901672 1139.507080,313.901123 1139.251465,313.900574 
	C1139.251465,305.847748 1139.251465,297.794952 1139.251465,289.742126 
	C1139.507080,289.729248 1139.762817,289.716370 1140.018433,289.703491 
	C1140.018433,293.635956 1140.018433,297.568390 1140.018433,301.992737 
z"/>
<path fill="#050505" opacity="1.000000" stroke="none" 
	d="
M773.279541,177.374527 
	C753.069397,182.558609 733.123108,182.959457 713.113037,178.781433 
	C711.621399,178.469986 709.729065,177.251205 709.129333,175.945908 
	C704.676819,166.255569 699.232971,163.040970 688.240906,163.615128 
	C686.112488,163.726303 682.282532,163.075256 682.072876,162.140045 
	C681.443787,159.334000 681.076843,155.161072 682.674988,153.429108 
	C686.287537,149.514084 691.053467,146.610458 695.581604,143.649185 
	C696.272583,143.197296 698.495728,144.310471 699.506287,145.244781 
	C709.871704,154.827667 721.965637,160.801178 736.048706,161.866974 
	C753.107544,163.157944 767.652161,156.839264 780.039001,145.431870 
	C782.424805,143.234787 784.216064,142.703018 786.812683,144.551071 
	C789.109070,146.185532 791.691833,147.458984 793.828125,149.269501 
	C801.004395,155.351532 801.335693,162.016174 793.598389,167.414185 
	C787.592957,171.603973 780.349854,174.019836 773.279541,177.374527 
z"/>
<path fill="#040404" opacity="1.000000" stroke="none" 
	d="
M744.835815,93.281952 
	C754.940857,113.024307 752.940552,136.895401 740.156189,151.527267 
	C725.011841,136.973572 724.910828,102.303520 740.336121,86.401329 
	C741.815735,88.641663 743.239075,90.796768 744.835815,93.281952 
z"/>
<path fill="#060606" opacity="1.000000" stroke="none" 
	d="
M708.971252,113.905701 
	C710.426514,114.768799 711.557617,115.463226 712.666016,116.192360 
	C717.615234,119.448288 720.922119,123.234100 721.999023,129.772049 
	C723.288696,137.601974 726.763245,145.072037 729.203979,152.433685 
	C710.860962,150.864426 689.530396,127.443321 689.169373,106.221001 
	C696.001465,108.864388 702.319092,111.308701 708.971252,113.905701 
z"/>
<path fill="#060606" opacity="1.000000" stroke="none" 
	d="
M784.902954,126.783134 
	C776.824829,140.409531 765.496582,149.107437 749.467285,153.214828 
	C751.118591,149.890747 752.697388,147.440216 753.592468,144.761261 
	C755.526794,138.972198 757.637024,133.153992 758.636414,127.174088 
	C759.219055,123.688034 760.608398,121.461510 763.106506,119.389839 
	C771.099426,112.761497 780.250549,108.816849 790.978577,107.132362 
	C790.784546,114.280991 788.135559,120.425789 784.902954,126.783134 
z"/>
<path fill="#0C0C0C" opacity="1.000000" stroke="none" 
	d="
M757.045410,102.808090 
	C757.791809,100.630379 758.222534,98.455444 759.530151,97.178329 
	C761.729431,95.030380 764.485962,93.452965 767.073486,91.588448 
	C772.020325,102.596695 770.832458,105.544662 759.169495,111.865242 
	C758.484009,108.966156 757.803955,106.090332 757.045410,102.808090 
z"/>
<path fill="#0C0C0C" opacity="1.000000" stroke="none" 
	d="
M723.305115,100.406555 
	C722.522400,104.490715 721.679565,108.170372 720.829590,111.881264 
	C708.984619,105.359283 708.564819,104.373741 712.611450,90.953674 
	C716.363586,94.146492 719.804321,97.074272 723.305115,100.406555 
z"/>
</svg>